<svg width="95" height="15" viewBox="0 0 95 15" fill="none" xmlns="http://www.w3.org/2000/svg">
<g style="mix-blend-mode:hard-light" opacity="0.5">
<mask id="path-1-outside-1_0_628" maskUnits="userSpaceOnUse" x="-0.75" y="0" width="96" height="15" fill="black">
<rect fill="white" x="-0.75" width="96" height="15"/>
<path d="M6.25 13.25V11.5H4.5V9.75H2.75V8H1V6.25H2.75V4.5H4.5V2.75H6.25V1H9.75V2.75H8V4.5H6.25V6.25H4.5V8H6.25V9.75H8V11.5H9.75V13.25H6.25ZM25.5 1V2.75H23.75V1H25.5ZM22 2.75H23.75V4.5H22V2.75ZM20.25 4.5H22V6.25H20.25V4.5ZM18.5 6.25H20.25V8H18.5V6.25ZM16.75 8H18.5V9.75H16.75V8ZM15 9.75H16.75V11.5H15V9.75ZM13.25 11.5H15V13.25H13.25V11.5ZM27.25 13.25V1H30.75V6.25H36V1H39.5V13.25H36V8H30.75V13.25H27.25ZM46.5 13.25V2.75H43V1H53.5V2.75H50V13.25H46.5ZM55.25 13.25V1H58.75V2.75H60.5V4.5H62.25V2.75H64V1H67.5V13.25H64V6.25H62.25V9.75H60.5V6.25H58.75V13.25H55.25ZM71 13.25V1H74.5V11.5H81.5V13.25H71ZM85 13.25V11.5H86.75V9.75H88.5V8H90.25V6.25H88.5V4.5H86.75V2.75H85V1H88.5V2.75H90.25V4.5H92V6.25H93.75V8H92V9.75H90.25V11.5H88.5V13.25H85Z"/>
</mask>
<path d="M6.25 13.25V11.5H4.5V9.75H2.75V8H1V6.25H2.75V4.5H4.5V2.75H6.25V1H9.75V2.75H8V4.5H6.25V6.25H4.5V8H6.25V9.75H8V11.5H9.75V13.25H6.25ZM25.5 1V2.75H23.75V1H25.5ZM22 2.75H23.75V4.5H22V2.75ZM20.25 4.5H22V6.25H20.25V4.5ZM18.5 6.25H20.25V8H18.5V6.25ZM16.75 8H18.5V9.75H16.75V8ZM15 9.75H16.75V11.5H15V9.75ZM13.25 11.5H15V13.25H13.25V11.5ZM27.25 13.25V1H30.75V6.25H36V1H39.5V13.25H36V8H30.75V13.25H27.25ZM46.5 13.25V2.75H43V1H53.5V2.75H50V13.25H46.5ZM55.25 13.25V1H58.75V2.75H60.5V4.5H62.25V2.75H64V1H67.5V13.25H64V6.25H62.25V9.75H60.5V6.25H58.75V13.25H55.25ZM71 13.25V1H74.5V11.5H81.5V13.25H71ZM85 13.25V11.5H86.75V9.75H88.5V8H90.25V6.25H88.5V4.5H86.75V2.75H85V1H88.5V2.75H90.25V4.5H92V6.25H93.75V8H92V9.75H90.25V11.5H88.5V13.25H85Z" fill="black"/>
<path d="M6.25 13.25H5.25V14.25H6.25V13.25ZM6.25 11.5H7.25V10.5H6.25V11.5ZM4.5 11.5H3.5V12.5H4.5V11.5ZM4.5 9.75H5.5V8.75H4.5V9.75ZM2.75 9.75H1.75V10.75H2.75V9.75ZM2.75 8H3.75V7H2.75V8ZM1 8H0V9H1V8ZM1 6.25V5.25H0V6.25H1ZM2.75 6.25V7.25H3.75V6.25H2.75ZM2.75 4.5V3.5H1.75V4.5H2.75ZM4.5 4.5V5.5H5.5V4.5H4.5ZM4.5 2.75V1.75H3.5V2.75H4.5ZM6.25 2.75V3.75H7.25V2.75H6.25ZM6.25 1V0H5.25V1H6.25ZM9.75 1H10.75V0H9.75V1ZM9.75 2.75V3.75H10.75V2.75H9.75ZM8 2.75V1.75H7V2.75H8ZM8 4.5V5.5H9V4.5H8ZM6.25 4.5V3.5H5.25V4.5H6.25ZM6.25 6.25V7.25H7.25V6.25H6.25ZM4.5 6.25V5.25H3.5V6.25H4.5ZM4.5 8H3.5V9H4.5V8ZM6.25 8H7.25V7H6.25V8ZM6.25 9.75H5.25V10.75H6.25V9.75ZM8 9.75H9V8.75H8V9.75ZM8 11.5H7V12.5H8V11.5ZM9.75 11.5H10.75V10.5H9.75V11.5ZM9.75 13.25V14.25H10.75V13.25H9.75ZM7.25 13.25V11.5H5.25V13.25H7.25ZM6.25 10.5H4.5V12.5H6.25V10.5ZM5.5 11.5V9.75H3.5V11.5H5.5ZM4.5 8.75H2.75V10.75H4.5V8.75ZM3.75 9.75V8H1.75V9.75H3.75ZM2.75 7H1V9H2.75V7ZM2 8V6.25H0V8H2ZM1 7.25H2.75V5.25H1V7.25ZM3.75 6.25V4.5H1.75V6.25H3.75ZM2.75 5.5H4.5V3.5H2.75V5.5ZM5.5 4.5V2.75H3.5V4.5H5.5ZM4.5 3.75H6.25V1.75H4.5V3.75ZM7.25 2.75V1H5.25V2.75H7.25ZM6.25 2H9.75V0H6.25V2ZM8.75 1V2.75H10.75V1H8.75ZM9.75 1.75H8V3.75H9.75V1.75ZM7 2.75V4.5H9V2.75H7ZM8 3.5H6.25V5.5H8V3.5ZM5.25 4.5V6.25H7.25V4.5H5.25ZM6.25 5.25H4.5V7.25H6.25V5.25ZM3.5 6.25V8H5.5V6.25H3.5ZM4.5 9H6.25V7H4.5V9ZM5.25 8V9.75H7.25V8H5.25ZM6.25 10.75H8V8.75H6.25V10.75ZM7 9.75V11.5H9V9.75H7ZM8 12.5H9.75V10.5H8V12.5ZM8.75 11.5V13.25H10.75V11.5H8.75ZM9.75 12.25H6.25V14.25H9.75V12.25ZM25.5 1H26.5V0H25.5V1ZM25.5 2.75V3.75H26.5V2.75H25.5ZM23.75 2.75H22.75V3.75H23.75V2.75ZM23.75 1V0H22.75V1H23.75ZM22 2.75V1.75H21V2.75H22ZM23.75 2.75H24.75V1.75H23.75V2.75ZM23.75 4.5V5.5H24.75V4.5H23.75ZM22 4.5H21V5.5H22V4.5ZM20.25 4.5V3.5H19.25V4.5H20.25ZM22 4.5H23V3.5H22V4.5ZM22 6.25V7.25H23V6.25H22ZM20.25 6.25H19.25V7.25H20.25V6.25ZM18.5 6.25V5.25H17.5V6.25H18.5ZM20.25 6.25H21.25V5.25H20.25V6.25ZM20.25 8V9H21.25V8H20.25ZM18.5 8H17.5V9H18.5V8ZM16.75 8V7H15.75V8H16.75ZM18.5 8H19.5V7H18.5V8ZM18.5 9.75V10.75H19.5V9.75H18.5ZM16.75 9.75H15.75V10.75H16.75V9.75ZM15 9.75V8.75H14V9.75H15ZM16.75 9.75H17.75V8.75H16.75V9.75ZM16.75 11.5V12.5H17.75V11.5H16.75ZM15 11.5H14V12.5H15V11.5ZM13.25 11.5V10.5H12.25V11.5H13.25ZM15 11.5H16V10.5H15V11.5ZM15 13.25V14.25H16V13.25H15ZM13.25 13.25H12.25V14.25H13.25V13.25ZM24.5 1V2.75H26.5V1H24.5ZM25.5 1.75H23.75V3.75H25.5V1.75ZM24.75 2.75V1H22.75V2.75H24.75ZM23.75 2H25.5V0H23.75V2ZM22 3.75H23.75V1.75H22V3.75ZM22.75 2.75V4.5H24.75V2.75H22.75ZM23.75 3.5H22V5.5H23.75V3.5ZM23 4.5V2.75H21V4.5H23ZM20.25 5.5H22V3.5H20.25V5.5ZM21 4.5V6.25H23V4.5H21ZM22 5.25H20.25V7.25H22V5.25ZM21.25 6.25V4.5H19.25V6.25H21.25ZM18.5 7.25H20.25V5.25H18.5V7.25ZM19.25 6.25V8H21.25V6.25H19.25ZM20.25 7H18.5V9H20.25V7ZM19.5 8V6.25H17.5V8H19.5ZM16.75 9H18.5V7H16.75V9ZM17.5 8V9.75H19.5V8H17.5ZM18.5 8.75H16.75V10.75H18.5V8.75ZM17.75 9.75V8H15.75V9.75H17.75ZM15 10.75H16.75V8.75H15V10.75ZM15.75 9.75V11.5H17.75V9.75H15.75ZM16.75 10.5H15V12.5H16.75V10.5ZM16 11.5V9.75H14V11.5H16ZM13.25 12.5H15V10.5H13.25V12.5ZM14 11.5V13.25H16V11.5H14ZM15 12.25H13.25V14.25H15V12.25ZM14.25 13.25V11.5H12.25V13.25H14.25ZM27.25 13.25H26.25V14.25H27.25V13.25ZM27.25 1V0H26.25V1H27.25ZM30.75 1H31.75V0H30.75V1ZM30.75 6.25H29.75V7.25H30.75V6.25ZM36 6.25V7.25H37V6.25H36ZM36 1V0H35V1H36ZM39.5 1H40.5V0H39.5V1ZM39.5 13.25V14.25H40.5V13.25H39.5ZM36 13.25H35V14.25H36V13.25ZM36 8H37V7H36V8ZM30.75 8V7H29.75V8H30.75ZM30.75 13.25V14.25H31.75V13.25H30.75ZM28.25 13.25V1H26.25V13.25H28.25ZM27.25 2H30.75V0H27.25V2ZM29.75 1V6.25H31.75V1H29.75ZM30.75 7.25H36V5.25H30.75V7.25ZM37 6.25V1H35V6.25H37ZM36 2H39.5V0H36V2ZM38.5 1V13.25H40.5V1H38.5ZM39.5 12.25H36V14.25H39.5V12.25ZM37 13.25V8H35V13.25H37ZM36 7H30.75V9H36V7ZM29.75 8V13.25H31.75V8H29.75ZM30.75 12.25H27.25V14.25H30.75V12.25ZM46.5 13.25H45.5V14.25H46.5V13.25ZM46.5 2.75H47.5V1.75H46.5V2.75ZM43 2.75H42V3.75H43V2.75ZM43 1V0H42V1H43ZM53.5 1H54.5V0H53.5V1ZM53.5 2.75V3.75H54.5V2.75H53.5ZM50 2.75V1.75H49V2.75H50ZM50 13.25V14.25H51V13.25H50ZM47.5 13.25V2.75H45.5V13.25H47.5ZM46.5 1.75H43V3.75H46.5V1.75ZM44 2.75V1H42V2.75H44ZM43 2H53.5V0H43V2ZM52.5 1V2.75H54.5V1H52.5ZM53.5 1.75H50V3.75H53.5V1.75ZM49 2.75V13.25H51V2.75H49ZM50 12.25H46.5V14.25H50V12.25ZM55.25 13.25H54.25V14.25H55.25V13.25ZM55.25 1V0H54.25V1H55.25ZM58.75 1H59.75V0H58.75V1ZM58.75 2.75H57.75V3.75H58.75V2.75ZM60.5 2.75H61.5V1.75H60.5V2.75ZM60.5 4.5H59.5V5.5H60.5V4.5ZM62.25 4.5V5.5H63.25V4.5H62.25ZM62.25 2.75V1.75H61.25V2.75H62.25ZM64 2.75V3.75H65V2.75H64ZM64 1V0H63V1H64ZM67.5 1H68.5V0H67.5V1ZM67.5 13.25V14.25H68.5V13.25H67.5ZM64 13.25H63V14.25H64V13.25ZM64 6.25H65V5.25H64V6.25ZM62.25 6.25V5.25H61.25V6.25H62.25ZM62.25 9.75V10.75H63.25V9.75H62.25ZM60.5 9.75H59.5V10.75H60.5V9.75ZM60.5 6.25H61.5V5.25H60.5V6.25ZM58.75 6.25V5.25H57.75V6.25H58.75ZM58.75 13.25V14.25H59.75V13.25H58.75ZM56.25 13.25V1H54.25V13.25H56.25ZM55.25 2H58.75V0H55.25V2ZM57.75 1V2.75H59.75V1H57.75ZM58.75 3.75H60.5V1.75H58.75V3.75ZM59.5 2.75V4.5H61.5V2.75H59.5ZM60.5 5.5H62.25V3.5H60.5V5.5ZM63.25 4.5V2.75H61.25V4.5H63.25ZM62.25 3.75H64V1.75H62.25V3.75ZM65 2.75V1H63V2.75H65ZM64 2H67.5V0H64V2ZM66.5 1V13.25H68.5V1H66.5ZM67.5 12.25H64V14.25H67.5V12.25ZM65 13.25V6.25H63V13.25H65ZM64 5.25H62.25V7.25H64V5.25ZM61.25 6.25V9.75H63.25V6.25H61.25ZM62.25 8.75H60.5V10.75H62.25V8.75ZM61.5 9.75V6.25H59.5V9.75H61.5ZM60.5 5.25H58.75V7.25H60.5V5.25ZM57.75 6.25V13.25H59.75V6.25H57.75ZM58.75 12.25H55.25V14.25H58.75V12.25ZM71 13.25H70V14.25H71V13.25ZM71 1V0H70V1H71ZM74.5 1H75.5V0H74.5V1ZM74.5 11.5H73.5V12.5H74.5V11.5ZM81.5 11.5H82.5V10.5H81.5V11.5ZM81.5 13.25V14.25H82.5V13.25H81.5ZM72 13.25V1H70V13.25H72ZM71 2H74.5V0H71V2ZM73.5 1V11.5H75.5V1H73.5ZM74.5 12.5H81.5V10.5H74.5V12.5ZM80.5 11.5V13.25H82.5V11.5H80.5ZM81.5 12.25H71V14.25H81.5V12.25ZM85 13.25H84V14.25H85V13.25ZM85 11.5V10.5H84V11.5H85ZM86.75 11.5V12.5H87.75V11.5H86.75ZM86.75 9.75V8.75H85.75V9.75H86.75ZM88.5 9.75V10.75H89.5V9.75H88.5ZM88.5 8V7H87.5V8H88.5ZM90.25 8V9H91.25V8H90.25ZM90.25 6.25H91.25V5.25H90.25V6.25ZM88.5 6.25H87.5V7.25H88.5V6.25ZM88.5 4.5H89.5V3.5H88.5V4.5ZM86.75 4.5H85.75V5.5H86.75V4.5ZM86.75 2.75H87.75V1.75H86.75V2.75ZM85 2.75H84V3.75H85V2.75ZM85 1V0H84V1H85ZM88.5 1H89.5V0H88.5V1ZM88.5 2.75H87.5V3.75H88.5V2.75ZM90.25 2.75H91.25V1.75H90.25V2.75ZM90.25 4.5H89.25V5.5H90.25V4.5ZM92 4.5H93V3.5H92V4.5ZM92 6.25H91V7.25H92V6.25ZM93.75 6.25H94.75V5.25H93.75V6.25ZM93.75 8V9H94.75V8H93.75ZM92 8V7H91V8H92ZM92 9.75V10.75H93V9.75H92ZM90.25 9.75V8.75H89.25V9.75H90.25ZM90.25 11.5V12.5H91.25V11.5H90.25ZM88.5 11.5V10.5H87.5V11.5H88.5ZM88.5 13.25V14.25H89.5V13.25H88.5ZM86 13.25V11.5H84V13.25H86ZM85 12.5H86.75V10.5H85V12.5ZM87.75 11.5V9.75H85.75V11.5H87.75ZM86.75 10.75H88.5V8.75H86.75V10.75ZM89.5 9.75V8H87.5V9.75H89.5ZM88.5 9H90.25V7H88.5V9ZM91.25 8V6.25H89.25V8H91.25ZM90.25 5.25H88.5V7.25H90.25V5.25ZM89.5 6.25V4.5H87.5V6.25H89.5ZM88.5 3.5H86.75V5.5H88.5V3.5ZM87.75 4.5V2.75H85.75V4.5H87.75ZM86.75 1.75H85V3.75H86.75V1.75ZM86 2.75V1H84V2.75H86ZM85 2H88.5V0H85V2ZM87.5 1V2.75H89.5V1H87.5ZM88.5 3.75H90.25V1.75H88.5V3.75ZM89.25 2.75V4.5H91.25V2.75H89.25ZM90.25 5.5H92V3.5H90.25V5.5ZM91 4.5V6.25H93V4.5H91ZM92 7.25H93.75V5.25H92V7.25ZM92.75 6.25V8H94.75V6.25H92.75ZM93.75 7H92V9H93.75V7ZM91 8V9.75H93V8H91ZM92 8.75H90.25V10.75H92V8.75ZM89.25 9.75V11.5H91.25V9.75H89.25ZM90.25 10.5H88.5V12.5H90.25V10.5ZM87.5 11.5V13.25H89.5V11.5H87.5ZM88.5 12.25H85V14.25H88.5V12.25Z" fill="white" mask="url(#path-1-outside-1_0_628)"/>
</g>
</svg>
